<mxfile host="app.diagrams.net" agent="Mozilla/5.0 (Windows NT 10.0; Win64; x64) AppleWebKit/537.36 (KHTML, like Gecko) Chrome/130.0.0.0 Safari/537.36" version="24.8.3">
  <diagram name="Page-1" id="CT4r7i0M6JHHdWPhSnN7">
    <mxGraphModel dx="1035" dy="511" grid="1" gridSize="10" guides="1" tooltips="1" connect="1" arrows="1" fold="1" page="1" pageScale="1" pageWidth="850" pageHeight="1100" math="0" shadow="0">
      <root>
        <mxCell id="0" />
        <mxCell id="1" parent="0" />
        <mxCell id="aNdYER7BEX4vtwbpjpTU-1" value="" style="swimlane;startSize=0;fillColor=#000000;movable=0;resizable=0;rotatable=0;deletable=0;editable=0;locked=1;connectable=0;" vertex="1" parent="1">
          <mxGeometry x="100" y="200" width="600" height="560" as="geometry" />
        </mxCell>
        <mxCell id="aNdYER7BEX4vtwbpjpTU-3" value="" style="rounded=0;whiteSpace=wrap;html=1;fillColor=#000000;movable=1;resizable=1;rotatable=1;deletable=1;editable=1;locked=0;connectable=1;" vertex="1" parent="aNdYER7BEX4vtwbpjpTU-1">
          <mxGeometry x="10" y="10" width="580" height="50" as="geometry" />
        </mxCell>
        <mxCell id="aNdYER7BEX4vtwbpjpTU-2" value="" style="ellipse;whiteSpace=wrap;html=1;aspect=fixed;fillColor=#00FFFF;" vertex="1" parent="aNdYER7BEX4vtwbpjpTU-1">
          <mxGeometry x="10" y="10" width="50" height="50" as="geometry" />
        </mxCell>
        <mxCell id="aNdYER7BEX4vtwbpjpTU-6" value="" style="rounded=1;whiteSpace=wrap;html=1;" vertex="1" parent="aNdYER7BEX4vtwbpjpTU-1">
          <mxGeometry x="70" y="10" width="170" height="50" as="geometry" />
        </mxCell>
        <mxCell id="aNdYER7BEX4vtwbpjpTU-13" value="" style="rounded=1;whiteSpace=wrap;html=1;" vertex="1" parent="aNdYER7BEX4vtwbpjpTU-1">
          <mxGeometry x="250" y="10" width="80" height="50" as="geometry" />
        </mxCell>
        <mxCell id="aNdYER7BEX4vtwbpjpTU-14" value="" style="rounded=1;whiteSpace=wrap;html=1;" vertex="1" parent="aNdYER7BEX4vtwbpjpTU-1">
          <mxGeometry x="340" y="10" width="80" height="50" as="geometry" />
        </mxCell>
        <mxCell id="aNdYER7BEX4vtwbpjpTU-15" value="" style="rounded=1;whiteSpace=wrap;html=1;" vertex="1" parent="aNdYER7BEX4vtwbpjpTU-1">
          <mxGeometry x="430" y="10" width="80" height="50" as="geometry" />
        </mxCell>
        <mxCell id="aNdYER7BEX4vtwbpjpTU-16" value="" style="ellipse;whiteSpace=wrap;html=1;aspect=fixed;fillColor=#FFFFFF;" vertex="1" parent="aNdYER7BEX4vtwbpjpTU-1">
          <mxGeometry x="530" y="10" width="50" height="50" as="geometry" />
        </mxCell>
        <mxCell id="aNdYER7BEX4vtwbpjpTU-17" value="Logo" style="text;strokeColor=none;align=center;fillColor=none;html=1;verticalAlign=middle;whiteSpace=wrap;rounded=0;" vertex="1" parent="aNdYER7BEX4vtwbpjpTU-1">
          <mxGeometry x="5" y="20" width="60" height="30" as="geometry" />
        </mxCell>
        <mxCell id="aNdYER7BEX4vtwbpjpTU-18" value="" style="rounded=0;whiteSpace=wrap;html=1;fillColor=#000000;movable=0;resizable=0;rotatable=0;deletable=0;editable=0;locked=1;connectable=0;" vertex="1" parent="1">
          <mxGeometry x="110" y="270" width="580" height="90" as="geometry" />
        </mxCell>
        <mxCell id="aNdYER7BEX4vtwbpjpTU-20" value="" style="rounded=1;whiteSpace=wrap;html=1;" vertex="1" parent="1">
          <mxGeometry x="120" y="270" width="60" height="90" as="geometry" />
        </mxCell>
        <mxCell id="aNdYER7BEX4vtwbpjpTU-21" value="" style="rounded=1;whiteSpace=wrap;html=1;" vertex="1" parent="1">
          <mxGeometry x="190" y="270" width="60" height="90" as="geometry" />
        </mxCell>
        <mxCell id="aNdYER7BEX4vtwbpjpTU-24" value="" style="rounded=1;whiteSpace=wrap;html=1;" vertex="1" parent="1">
          <mxGeometry x="260" y="270" width="60" height="90" as="geometry" />
        </mxCell>
        <mxCell id="aNdYER7BEX4vtwbpjpTU-25" value="" style="rounded=1;whiteSpace=wrap;html=1;" vertex="1" parent="1">
          <mxGeometry x="330" y="270" width="60" height="90" as="geometry" />
        </mxCell>
        <mxCell id="aNdYER7BEX4vtwbpjpTU-26" value="" style="rounded=1;whiteSpace=wrap;html=1;" vertex="1" parent="1">
          <mxGeometry x="400" y="270" width="60" height="90" as="geometry" />
        </mxCell>
        <mxCell id="aNdYER7BEX4vtwbpjpTU-27" value="" style="rounded=1;whiteSpace=wrap;html=1;" vertex="1" parent="1">
          <mxGeometry x="470" y="270" width="60" height="90" as="geometry" />
        </mxCell>
        <mxCell id="aNdYER7BEX4vtwbpjpTU-28" value="" style="rounded=1;whiteSpace=wrap;html=1;" vertex="1" parent="1">
          <mxGeometry x="540" y="270" width="60" height="90" as="geometry" />
        </mxCell>
        <mxCell id="aNdYER7BEX4vtwbpjpTU-29" value="" style="rounded=1;whiteSpace=wrap;html=1;" vertex="1" parent="1">
          <mxGeometry x="610" y="270" width="60" height="90" as="geometry" />
        </mxCell>
        <mxCell id="aNdYER7BEX4vtwbpjpTU-30" value="" style="rounded=0;whiteSpace=wrap;html=1;fillColor=#000000;" vertex="1" parent="1">
          <mxGeometry x="110" y="370" width="580" height="150" as="geometry" />
        </mxCell>
        <mxCell id="aNdYER7BEX4vtwbpjpTU-34" value="Group Post" style="text;strokeColor=none;align=center;fillColor=#FFFFFF;html=1;verticalAlign=middle;whiteSpace=wrap;rounded=0;" vertex="1" parent="1">
          <mxGeometry x="320" y="430" width="140" height="30" as="geometry" />
        </mxCell>
        <mxCell id="aNdYER7BEX4vtwbpjpTU-38" value="" style="rounded=0;whiteSpace=wrap;html=1;fillColor=#000000;" vertex="1" parent="1">
          <mxGeometry x="110" y="530" width="580" height="110" as="geometry" />
        </mxCell>
        <mxCell id="aNdYER7BEX4vtwbpjpTU-41" value="" style="whiteSpace=wrap;html=1;aspect=fixed;" vertex="1" parent="1">
          <mxGeometry x="110" y="530" width="110" height="110" as="geometry" />
        </mxCell>
        <mxCell id="aNdYER7BEX4vtwbpjpTU-42" value="" style="whiteSpace=wrap;html=1;aspect=fixed;" vertex="1" parent="1">
          <mxGeometry x="225" y="530" width="110" height="110" as="geometry" />
        </mxCell>
        <mxCell id="aNdYER7BEX4vtwbpjpTU-43" value="" style="whiteSpace=wrap;html=1;aspect=fixed;" vertex="1" parent="1">
          <mxGeometry x="345" y="530" width="110" height="110" as="geometry" />
        </mxCell>
        <mxCell id="aNdYER7BEX4vtwbpjpTU-44" value="" style="whiteSpace=wrap;html=1;aspect=fixed;" vertex="1" parent="1">
          <mxGeometry x="580" y="530" width="110" height="110" as="geometry" />
        </mxCell>
        <mxCell id="aNdYER7BEX4vtwbpjpTU-45" value="" style="whiteSpace=wrap;html=1;aspect=fixed;" vertex="1" parent="1">
          <mxGeometry x="460" y="530" width="110" height="110" as="geometry" />
        </mxCell>
        <mxCell id="aNdYER7BEX4vtwbpjpTU-46" value="Groups Your May Follow" style="text;strokeColor=none;align=center;fillColor=none;html=1;verticalAlign=middle;whiteSpace=wrap;rounded=0;" vertex="1" parent="1">
          <mxGeometry x="170" y="570" width="480" height="30" as="geometry" />
        </mxCell>
        <mxCell id="aNdYER7BEX4vtwbpjpTU-47" value="" style="rounded=0;whiteSpace=wrap;html=1;fillColor=#000000;" vertex="1" parent="1">
          <mxGeometry x="110" y="650" width="580" height="90" as="geometry" />
        </mxCell>
        <mxCell id="aNdYER7BEX4vtwbpjpTU-48" value="Group Posts" style="text;strokeColor=none;align=center;fillColor=#FFFFFF;html=1;verticalAlign=middle;whiteSpace=wrap;rounded=0;" vertex="1" parent="1">
          <mxGeometry x="270" y="680" width="270" height="30" as="geometry" />
        </mxCell>
        <mxCell id="aNdYER7BEX4vtwbpjpTU-52" value="" style="html=1;shadow=0;dashed=0;align=center;verticalAlign=middle;shape=mxgraph.arrows2.arrow;dy=0.6;dx=40;notch=0;fillColor=#000000;" vertex="1" parent="1">
          <mxGeometry x="600" y="310" width="100" height="30" as="geometry" />
        </mxCell>
        <mxCell id="aNdYER7BEX4vtwbpjpTU-53" value="" style="html=1;shadow=0;dashed=0;align=center;verticalAlign=middle;shape=mxgraph.arrows2.arrow;dy=0.6;dx=40;notch=0;fillColor=#000000;" vertex="1" parent="1">
          <mxGeometry x="610" y="570" width="100" height="30" as="geometry" />
        </mxCell>
        <mxCell id="aNdYER7BEX4vtwbpjpTU-54" value="" style="html=1;shadow=0;dashed=0;align=center;verticalAlign=middle;shape=mxgraph.arrows2.arrow;dy=0.6;dx=40;direction=south;notch=0;fillColor=#000000;" vertex="1" parent="1">
          <mxGeometry x="385" y="690" width="25" height="70" as="geometry" />
        </mxCell>
      </root>
    </mxGraphModel>
  </diagram>
</mxfile>
